<svg xmlns="http://www.w3.org/2000/svg" viewBox="0 -0.5 21 21" shape-rendering="crispEdges">
<metadata>Made with Pixels to Svg https://codepen.io/shshaw/pen/XbxvNj</metadata>
<path stroke="#383838" d="M18 0h3M17 1h1M20 1h1M16 2h1M20 2h1M15 3h1M19 3h1M14 4h1M18 4h1M13 5h1M17 5h1M12 6h1M16 6h1M11 7h1M15 7h1M10 8h1M14 8h1M9 9h1M13 9h1M8 10h1M12 10h1M7 11h1M11 11h1M6 12h1M10 12h1M9 13h1M8 14h1" />
<path stroke="#575657" d="M18 1h1M17 2h1M19 2h1M16 3h1M18 3h1M15 4h1M17 4h1M14 5h1M16 5h1M13 6h1M15 6h1M12 7h1M14 7h1M11 8h1M13 8h1M10 9h1M12 9h1M9 10h1M11 10h1M8 11h1M10 11h1M7 12h1M9 12h1M8 13h1" />
<path stroke="#474747" d="M19 1h1M18 2h1M17 3h1M16 4h1M15 5h1M14 6h1M13 7h1M12 8h1M11 9h1M10 10h1M9 11h1M8 12h1M7 13h1" />
<path stroke="#000000" d="M2 11h3M2 12h1M4 12h2M2 13h2M5 13h2M3 14h2M6 14h2M4 15h2M7 15h2M5 16h2M8 16h2M6 17h2M9 17h1M7 18h3" />
<path stroke="#0f0f0f" d="M3 12h1M4 13h1M5 14h1M6 15h1M7 16h1M8 17h1" />
<path stroke="#231709" d="M3 15h1M2 16h1M1 17h1M3 17h1M5 17h1M0 18h1M2 18h1M4 18h1M0 19h1M3 19h1M0 20h3" />
<path stroke="#4d3213" d="M3 16h2M2 17h1M4 17h1M1 18h1M3 18h1M1 19h2" />
</svg>