<svg xmlns="http://www.w3.org/2000/svg" viewBox="0 -0.5 33 33" shape-rendering="crispEdges">
<metadata>Made with Pixels to Svg https://codepen.io/shshaw/pen/XbxvNj</metadata>
<path stroke="#000000" d="M15 0h3M12 1h3M18 1h3M10 2h2M21 2h2M7 3h3M15 3h3M23 3h3M5 4h2M12 4h3M18 4h3M26 4h2M4 5h1M9 5h3M21 5h3M28 5h1M4 6h1M8 6h1M24 6h1M28 6h1M4 7h1M7 7h1M25 7h1M28 7h1M4 8h1M7 8h1M25 8h1M28 8h1M4 9h1M7 9h1M25 9h1M28 9h1M5 10h1M7 10h1M25 10h1M27 10h1M5 11h1M7 11h1M25 11h1M27 11h1M5 12h1M7 12h1M25 12h1M27 12h1M5 13h1M7 13h1M25 13h1M27 13h1M5 14h1M8 14h1M24 14h1M27 14h1M5 15h1M8 15h1M24 15h1M27 15h1M6 16h1M8 16h1M24 16h1M26 16h1M6 17h1M9 17h1M23 17h1M26 17h1M6 18h1M9 18h1M23 18h1M26 18h1M7 19h1M9 19h1M23 19h1M25 19h1M7 20h1M10 20h1M22 20h1M25 20h1M7 21h1M10 21h1M22 21h1M25 21h1M8 22h1M11 22h1M21 22h1M24 22h1M8 23h1M11 23h1M21 23h1M24 23h1M9 24h1M12 24h1M20 24h1M23 24h1M9 25h1M12 25h1M20 25h1M23 25h1M10 26h1M13 26h1M19 26h1M22 26h1M10 27h1M13 27h1M19 27h1M22 27h1M11 28h1M14 28h1M18 28h1M21 28h1M12 29h1M15 29h3M20 29h1M13 30h1M19 30h1M14 31h1M18 31h1M15 32h3" />
<path stroke="#666666" d="M15 1h2M12 2h4M10 3h5M7 4h5M5 5h4M5 6h3M5 7h2M5 8h2M5 9h2M6 10h1M6 11h1M6 12h1M6 13h1M6 14h2M6 15h2M7 16h1M7 17h2M7 18h2M8 19h1M8 20h2M8 21h2M9 22h2M9 23h2M10 24h2M10 25h2M11 26h2M11 27h2M12 28h2M13 29h2M14 30h2M15 31h2" />
<path stroke="#8c8c8c" d="M17 1h1M16 2h5M18 3h5M21 4h5M24 5h4M25 6h3M26 7h2M26 8h2M26 9h2M26 10h1M26 11h1M26 12h1M26 13h1M25 14h2M25 15h2M25 16h1M24 17h2M24 18h2M24 19h1M23 20h2M23 21h2M22 22h2M22 23h2M21 24h2M21 25h2M20 26h2M20 27h2M19 28h2M18 29h2M16 30h3M17 31h1" />
<path stroke="#362714" d="M15 4h2M12 5h4M9 6h6M8 7h7M8 8h7M8 9h7M8 10h7M8 11h6M8 12h6M8 13h6M9 14h5M9 15h5M9 16h5M10 17h4M10 18h5M10 19h5M11 20h4M11 21h4M12 22h3M12 23h3M13 24h2M13 25h2M14 26h1M14 27h2M15 28h2" />
<path stroke="#4b371c" d="M17 4h1M16 5h5M15 6h9M15 7h10M15 8h10M15 9h10M15 10h10M14 11h11M14 12h11M14 13h11M14 14h10M14 15h10M14 16h10M14 17h9M15 18h8M15 19h8M15 20h7M15 21h7M15 22h6M15 23h6M15 24h5M15 25h5M15 26h4M16 27h3M17 28h1" />
</svg>