<svg xmlns="http://www.w3.org/2000/svg" viewBox="0 -0.5 11 11" shape-rendering="crispEdges">
<metadata>Made with Pixels to Svg https://codepen.io/shshaw/pen/XbxvNj</metadata>
<path stroke="#000000" d="M2 0h2M7 0h2M1 1h1M4 1h1M6 1h1M9 1h1M0 2h1M5 2h1M10 2h1M0 3h1M10 3h1M0 4h1M10 4h1M0 5h1M10 5h1M1 6h1M9 6h1M2 7h1M8 7h1M3 8h1M7 8h1M4 9h1M6 9h1M5 10h1" />
<path stroke="#990000" d="M2 1h2M1 2h2M1 3h1M1 4h1M1 5h2M2 6h2M3 7h2M4 8h3M5 9h1" />
<path stroke="#ff0000" d="M7 1h2M3 2h2M6 2h4M2 3h6M9 3h1M2 4h5M9 4h1M3 5h4M8 5h2M4 6h5M5 7h3" />
<path stroke="#ffffff" d="M8 3h1M7 4h2M7 5h1" />
</svg>