<svg xmlns="http://www.w3.org/2000/svg" viewBox="0 -0.5 30 30" shape-rendering="crispEdges">
<metadata>Made with Pixels to Svg https://codepen.io/shshaw/pen/XbxvNj</metadata>
<path stroke="#000000" d="M22 0h2M21 1h1M23 1h1M20 2h1M22 2h1M19 3h1M22 3h1M18 4h1M21 4h1M17 5h1M21 5h1M16 6h1M20 6h1M15 7h1M20 7h1M14 8h1M19 8h1M13 9h1M19 9h1M12 10h1M18 10h1M11 11h1M18 11h1M10 12h1M17 12h1M9 13h1M18 13h4M8 14h1M22 14h1M7 15h1M21 15h1M6 16h1M20 16h1M7 17h4M19 17h1M11 18h1M18 18h1M11 19h1M17 19h1M10 20h1M16 20h1M10 21h1M15 21h1M9 22h1M14 22h1M9 23h1M13 23h1M8 24h1M12 24h1M8 25h1M11 25h1M7 26h1M10 26h1M7 27h1M9 27h1M6 28h1M8 28h1M6 29h2" />
<path stroke="#edff4f" d="M22 1h1M21 2h1M20 3h1M19 4h1M18 5h1M17 6h1M16 7h1M15 8h1M14 9h1M13 10h1M12 11h1M11 12h1M10 13h1M9 14h1M8 15h1M7 16h1" />
<path stroke="#d9ff00" d="M21 3h1M20 4h1M19 5h2M18 6h2M17 7h3M16 8h3M15 9h4M14 10h4M13 11h5M12 12h5M11 13h7M10 14h11M9 15h11M8 16h11M11 17h7M12 18h5M12 19h4M11 20h4M11 21h3M10 22h3M10 23h2M9 24h2M9 25h1M8 26h1" />
<path stroke="#93a805" d="M21 14h1M20 15h1M19 16h1M18 17h1M17 18h1M16 19h1M15 20h1M14 21h1M13 22h1M12 23h1M11 24h1M10 25h1M9 26h1M8 27h1M7 28h1" />
</svg>